# xmcd
#
# Track frame offsets:
#	183
#	11148
#	24860
#	39583
#	61708
#	74843
#	89740
#	100385
#	114403
#	127353
#	149738
#	161735
#	174743
#	188300
#	200648
#	213975
#	232268
#	250560
#	264533
#	277480
#
# Disc length: 3906
#
# Revision: 2
# Processed by: cddbd v1.5.1PL0 Copyright (c) Steve Scherf et al.
# Submitted via: CDValet v3.31 - Copyright (c) 1997 Greg Leichner
# Normalized: r1:DSETVAR1,TDELIM( - )
#
DISCID=3c0f4014
DTITLE=Various Artist - 20 Blues Classics (Part 1)
DYEAR=1900
DGENRE=
TTITLE0=Howlin´Wolf - Little Red Rooster
TTITLE1=BB King - Three O´Clock Blues
TTITLE2=John Lee Hooker - Sugar Mama
TTITLE3=John Mayall - A Big Man
TTITLE4=Elmore James - Dust My Broom
TTITLE5=BB King - BB Boogie
TTITLE6=Howlin´Wolf - Who´s Been Talking
TTITLE7=Little Walter - Blues With A Feeling
TTITLE8=Sonny Boy Williamson - Work With Me
TTITLE9=Eric Burdon and The Animals - Boom Boom
TTITLE10=BB King - Dark Is The Night Part I
TTITLE11=Muddy Waters - Forty Days And Forty Nights
TTITLE12=Lightning Hopkins - Mojo Hand
TTITLE13=Elmore James - The Sky Is Crying
TTITLE14=Muddy Waters - She Moves Me
TTITLE15=BB King - Paying The Cost To Be The Boss
TTITLE16=John Lee Hooker - House Rent Boogie
TTITLE17=Howlin´ Wolf - Smokestack Lightning
TTITLE18=Muddy Waters - I Just Want To Make Love To You
TTITLE19=The Animals and Sonny Boy - My Babe
EXTD=
EXTT0=
EXTT1=
EXTT2=
EXTT3=
EXTT4=
EXTT5=
EXTT6=
EXTT7=
EXTT8=
EXTT9=
EXTT10=
EXTT11=
EXTT12=
EXTT13=
EXTT14=
EXTT15=
EXTT16=
EXTT17=
EXTT18=
EXTT19=
PLAYORDER=
